<?xml version="1.0" encoding="utf-8"?>
<!-- Svg Vector Icons : http://www.onlinewebfonts.com/icon -->
<!DOCTYPE svg PUBLIC "-//W3C//DTD SVG 1.1//EN" "http://www.w3.org/Graphics/SVG/1.1/DTD/svg11.dtd">
<svg version="1.1" xmlns="http://www.w3.org/2000/svg" xmlns:xlink="http://www.w3.org/1999/xlink" x="0px" y="0px" viewBox="0 0 1000 1000" enable-background="new 0 0 1000 1000" xml:space="preserve">
<metadata> Svg Vector Icons : http://www.onlinewebfonts.com/icon </metadata>
<g><g><path d="M402.1,750.5l148.2-148.2L397.7,449.7l-48.1,48.1l105,104.5l-52.5,52.5L249.5,502.2l152.6-152.6l21.9,21.9l47.6-47.6l-69.5-70L153.8,502.2L402.1,750.5z M597.9,746.1l248.3-248.3L597.9,249.5L449.7,397.7l152.6,152.6l48.1-48.1l-105-104.5l52.5-52.5l152.6,152.6L597.9,650.4L576,628.5l-47.6,48.1L597.9,746.1z M990,500c0,66.4-12.9,129.8-38.8,190.3S890.5,803,846.7,846.7c-43.8,43.8-95.9,78.6-156.4,104.5S566.4,990,500,990c-66.4,0-129.8-12.9-190.3-38.8c-60.5-25.9-112.7-60.7-156.4-104.5C109.5,803,74.7,750.8,48.8,690.3S10,566.4,10,500c0-66.4,12.9-129.8,38.8-190.3c25.9-60.5,60.7-112.7,104.5-156.4c43.8-43.8,95.9-78.6,156.4-104.5C370.2,22.9,433.6,10,500,10c66.4,0,129.8,12.9,190.3,38.8S803,109.5,846.7,153.3c43.8,43.8,78.6,95.9,104.5,156.4C977.1,370.2,990,433.6,990,500z"/></g></g>
</svg>